<svg xmlns="http://www.w3.org/2000/svg" width="1100" height="300" viewBox="0 0 1100 300" role="img" aria-labelledby="title">
  <title id="title">How an Endpoint Works</title>
  <defs>
    <style>
      .bg { fill: #f8fafc; }
      .box-app { fill: #eff6ff; stroke: #93c5fd; stroke-width: 2; }
      .box-ep { fill: #fef9c3; stroke: #fcd34d; stroke-width: 2.5; }
      .box-model { fill: #f0fdf4; stroke: #6ee7b7; stroke-width: 2; }
      .box-resp { fill: #fdf4ff; stroke: #d8b4fe; stroke-width: 2; }
      .h1 { font-family: Segoe UI, Arial, sans-serif; font-size: 24px; font-weight: 700; fill: #0f172a; }
      .h2 { font-family: Segoe UI, Arial, sans-serif; font-size: 15px; font-weight: 700; fill: #1e293b; }
      .body { font-family: Segoe UI, Arial, sans-serif; font-size: 13.5px; fill: #334155; }
      .small { font-family: Segoe UI, Arial, sans-serif; font-size: 12.5px; fill: #64748b; }
      .code { font-family: Consolas, monospace; font-size: 12px; fill: #0f172a; }
      .arrow { stroke: #64748b; stroke-width: 2.5; fill: none; marker-end: url(#arrep); }
      .arrow-back { stroke: #a78bfa; stroke-width: 2; fill: none; marker-end: url(#arrepb); stroke-dasharray: 6 4; }
    </style>
    <marker id="arrep" markerWidth="9" markerHeight="7" refX="9" refY="3.5" orient="auto">
      <polygon fill="#64748b" points="0 0, 9 3.5, 0 7"/>
    </marker>
    <marker id="arrepb" markerWidth="9" markerHeight="7" refX="9" refY="3.5" orient="auto">
      <polygon fill="#a78bfa" points="0 0, 9 3.5, 0 7"/>
    </marker>
  </defs>

  <rect class="bg" x="0" y="0" width="1100" height="300"/>
  <text class="h1" x="550" y="40" text-anchor="middle">How an Endpoint Works</text>

  <!-- Application -->
  <rect class="box-app" x="30" y="70" width="200" height="170" rx="12"/>
  <text class="h2" x="130" y="98" text-anchor="middle" fill="#1e40af">Your Application</text>
  <text class="body" x="50" y="125">Sends a request with</text>
  <text class="body" x="50" y="145">input data:</text>
  <text class="code" x="50" y="172">{ "age": 25,</text>
  <text class="code" x="50" y="190">  "balance": 3200,</text>
  <text class="code" x="50" y="208">  "region": "West" }</text>

  <!-- Arrow request -->
  <line class="arrow" x1="232" y1="145" x2="338" y2="145"/>
  <text class="small" x="285" y="136" text-anchor="middle">HTTP request</text>

  <!-- Endpoint -->
  <rect class="box-ep" x="340" y="70" width="220" height="170" rx="12"/>
  <text class="h2" x="450" y="98" text-anchor="middle" fill="#92400e">Endpoint (URL)</text>
  <text class="body" x="360" y="125">Receives the request.</text>
  <text class="body" x="360" y="148">Passes input to the</text>
  <text class="body" x="360" y="168">deployed model.</text>
  <text class="small" x="360" y="210">Authentication &amp; logging</text>
  <text class="small" x="360" y="228">happen here.</text>

  <!-- Arrow to model -->
  <line class="arrow" x1="562" y1="155" x2="618" y2="155"/>

  <!-- Model -->
  <rect class="box-model" x="620" y="70" width="200" height="170" rx="12"/>
  <text class="h2" x="720" y="98" text-anchor="middle" fill="#166534">Deployed Model</text>
  <text class="body" x="640" y="125">Applies the learned</text>
  <text class="body" x="640" y="148">pattern to the input.</text>
  <text class="body" x="640" y="175">Produces a score</text>
  <text class="body" x="640" y="195">or prediction.</text>

  <!-- Arrow to response -->
  <line class="arrow" x1="820" y1="155" x2="868" y2="155"/>

  <!-- Response -->
  <rect class="box-resp" x="870" y="70" width="200" height="170" rx="12"/>
  <text class="h2" x="970" y="98" text-anchor="middle" fill="#6b21a8">Response</text>
  <text class="body" x="890" y="125">Returned instantly</text>
  <text class="body" x="890" y="148">to your application:</text>
  <text class="code" x="890" y="178">{ "churn_risk":</text>
  <text class="code" x="890" y="198">    0.72,</text>
  <text class="code" x="890" y="218">  "label": "high" }</text>
</svg>
