<svg xmlns="http://www.w3.org/2000/svg" width="1100" height="370" viewBox="0 0 1100 370" role="img" aria-labelledby="title">
  <title id="title">Overfitting and Underfitting Explained</title>
  <defs>
    <style>
      .bg { fill: #f8fafc; }
      .card-good { fill: #f0fdf4; stroke: #6ee7b7; stroke-width: 2; }
      .card-over { fill: #fff1f2; stroke: #fca5a5; stroke-width: 2; }
      .card-under { fill: #fef9c3; stroke: #fcd34d; stroke-width: 2; }
      .bar-good { fill: #22c55e; }
      .bar-over { fill: #ef4444; }
      .bar-under { fill: #f59e0b; }
      .h1 { font-family: Segoe UI, Arial, sans-serif; font-size: 24px; font-weight: 700; fill: #0f172a; }
      .h2 { font-family: Segoe UI, Arial, sans-serif; font-size: 17px; font-weight: 700; }
      .body { font-family: Segoe UI, Arial, sans-serif; font-size: 14px; fill: #334155; }
      .small { font-family: Segoe UI, Arial, sans-serif; font-size: 12.5px; fill: #475569; }
      .metric { font-family: Segoe UI, Arial, sans-serif; font-size: 13px; font-weight: 700; fill: #1e293b; }
      .badge-g { fill: #166534; }
      .badge-r { fill: #991b1b; }
      .badge-y { fill: #92400e; }
    </style>
  </defs>

  <rect class="bg" x="0" y="0" width="1100" height="370"/>
  <text class="h1" x="550" y="44" text-anchor="middle">Overfitting and Underfitting</text>
  <text class="body" x="550" y="68" text-anchor="middle" font-size="14" fill="#475569">Your training and test scores reveal whether your model learned properly.</text>

  <!-- Underfitting -->
  <rect class="card-under" x="30" y="85" width="320" height="255" rx="12"/>
  <rect class="bar-under" x="30" y="85" width="320" height="40" rx="12"/>
  <text class="h2" x="190" y="112" text-anchor="middle" fill="white">Underfitting</text>
  <text class="body" x="55" y="155">Training score: Low</text>
  <text class="body" x="55" y="177">Test score: Low</text>
  <!-- mini bar chart -->
  <rect fill="#fcd34d" x="55" y="200" width="60" height="12" rx="3"/>
  <rect fill="#fcd34d" x="55" y="220" width="50" height="12" rx="3"/>
  <text class="small" x="125" y="211">Training</text>
  <text class="small" x="125" y="231">Test</text>
  <text class="body" x="55" y="265">The model did not learn</text>
  <text class="body" x="55" y="284">enough. Features may be</text>
  <text class="body" x="55" y="302">too few or model too simple.</text>

  <!-- Good Fit -->
  <rect class="card-good" x="390" y="85" width="320" height="255" rx="12"/>
  <rect class="bar-good" x="390" y="85" width="320" height="40" rx="12"/>
  <text class="h2" x="550" y="112" text-anchor="middle" fill="white">Good Fit</text>
  <text class="body" x="415" y="155">Training score: High</text>
  <text class="body" x="415" y="177">Test score: High (similar to training)</text>
  <!-- mini bar chart -->
  <rect fill="#22c55e" x="415" y="200" width="120" height="12" rx="3"/>
  <rect fill="#22c55e" x="415" y="220" width="110" height="12" rx="3"/>
  <text class="small" x="545" y="211">Training</text>
  <text class="small" x="545" y="231">Test</text>
  <text class="body" x="415" y="265">The model learned real patterns</text>
  <text class="body" x="415" y="284">and generalizes well to</text>
  <text class="body" x="415" y="302">data it has never seen before.</text>

  <!-- Overfitting -->
  <rect class="card-over" x="750" y="85" width="320" height="255" rx="12"/>
  <rect class="bar-over" x="750" y="85" width="320" height="40" rx="12"/>
  <text class="h2" x="910" y="112" text-anchor="middle" fill="white">Overfitting</text>
  <text class="body" x="775" y="155">Training score: Very high</text>
  <text class="body" x="775" y="177">Test score: Much lower</text>
  <!-- mini bar chart -->
  <rect fill="#ef4444" x="775" y="200" width="150" height="12" rx="3"/>
  <rect fill="#f87171" x="775" y="220" width="70" height="12" rx="3"/>
  <text class="small" x="935" y="211">Training</text>
  <text class="small" x="935" y="231">Test</text>
  <text class="body" x="775" y="265">The model memorized the training</text>
  <text class="body" x="775" y="284">data, including its noise.</text>
  <text class="body" x="775" y="302">It fails on new unseen data.</text>
</svg>
