<svg xmlns="http://www.w3.org/2000/svg" width="1040" height="520" viewBox="0 0 1040 520" role="img" aria-labelledby="title desc">
  <title id="title">Tabla comparativa API versus servicio web</title>
  <desc id="desc">Una tabla de dos columnas que compara una API y un servicio web en definición, alcance y ejemplo.</desc>
  <defs>
    <style>
      .bg { fill: #f7fafc; }
      .title { fill: #0f172a; font-family: Segoe UI, Arial, sans-serif; font-size: 28px; font-weight: 700; }
      .subtitle { fill: #334155; font-family: Segoe UI, Arial, sans-serif; font-size: 15px; }
      .rowlabel { font-family: Segoe UI, Arial, sans-serif; font-size: 15px; font-weight: 700; fill: #0f172a; }
      .colhead { font-family: Segoe UI, Arial, sans-serif; font-size: 18px; font-weight: 700; fill: #ffffff; text-anchor: middle; }
      .cell { font-family: Segoe UI, Arial, sans-serif; font-size: 14px; fill: #1f2937; }
      .grid { stroke: #cbd5e1; stroke-width: 1.5; fill: none; }
    </style>
  </defs>
  <rect class="bg" x="0" y="0" width="1040" height="520"/>
  <text class="title" x="60" y="52">API vs servicio web</text>
  <text class="subtitle" x="60" y="80">Comparación lado a lado</text>

  <!-- table area: x 40..1000, three columns: label 40-280, API 280-640, WebSvc 640-1000 -->
  <!-- header row -->
  <rect x="40" y="120" width="240" height="60" fill="#e2e8f0" stroke="#cbd5e1" stroke-width="1.5"/>
  <rect x="280" y="120" width="360" height="60" rx="0" fill="#004a99"/>
  <rect x="640" y="120" width="360" height="60" rx="0" fill="#15803d"/>
  <text class="colhead" x="460" y="157">API</text>
  <text class="colhead" x="820" y="157">Servicio web</text>

  <!-- Row 1: Definition -->
  <rect x="40" y="180" width="240" height="100" fill="#ffffff" stroke="#cbd5e1" stroke-width="1.5"/>
  <rect x="280" y="180" width="360" height="100" fill="#ffffff" stroke="#cbd5e1" stroke-width="1.5"/>
  <rect x="640" y="180" width="360" height="100" fill="#ffffff" stroke="#cbd5e1" stroke-width="1.5"/>
  <text class="rowlabel" x="60" y="234">Definición</text>
  <text class="cell" x="300" y="220">el contrato que define</text>
  <text class="cell" x="300" y="242">cómo interactuar: qué</text>
  <text class="cell" x="300" y="264">enviar y qué esperar.</text>
  <text class="cell" x="660" y="220">la implementación</text>
  <text class="cell" x="660" y="242">alojada y en ejecución</text>
  <text class="cell" x="660" y="264">que cumple el contrato.</text>

  <!-- Row 2: What it describes -->
  <rect x="40" y="280" width="240" height="110" fill="#f8fafc" stroke="#cbd5e1" stroke-width="1.5"/>
  <rect x="280" y="280" width="360" height="110" fill="#f8fafc" stroke="#cbd5e1" stroke-width="1.5"/>
  <rect x="640" y="280" width="360" height="110" fill="#f8fafc" stroke="#cbd5e1" stroke-width="1.5"/>
  <text class="rowlabel" x="60" y="328">Qué</text>
  <text class="rowlabel" x="60" y="350">describe</text>
  <text class="cell" x="300" y="316">Esquema de solicitud/respuesta,</text>
  <text class="cell" x="300" y="340">authentication, datos types</text>
  <text class="cell" x="300" y="364">y reglas de versionado.</text>
  <text class="cell" x="660" y="316">A running despliegue con</text>
  <text class="cell" x="660" y="340">cómputo, replicas y el</text>
  <text class="cell" x="660" y="364">código que ejecuta la lógica.</text>

  <!-- Row 3: Example -->
  <rect x="40" y="390" width="240" height="100" fill="#ffffff" stroke="#cbd5e1" stroke-width="1.5"/>
  <rect x="280" y="390" width="360" height="100" fill="#ffffff" stroke="#cbd5e1" stroke-width="1.5"/>
  <rect x="640" y="390" width="360" height="100" fill="#ffffff" stroke="#cbd5e1" stroke-width="1.5"/>
  <text class="rowlabel" x="60" y="444">Ejemplo</text>
  <text class="cell" x="300" y="430">"POST /score espera JSON con</text>
  <text class="cell" x="300" y="454">características y devuelve una etiqueta</text>
  <text class="cell" x="300" y="478">y probabilidad."</text>
  <text class="cell" x="660" y="430">el endpoint en línea de Azure ML</text>
  <text class="cell" x="660" y="454">que realmente aloja</text>
  <text class="cell" x="660" y="478">y sirve ese modelo.</text>
</svg>
